<mxfile host="app.diagrams.net" modified="2022-02-23T18:32:49.181Z" agent="5.0 (Windows NT 10.0; Win64; x64) AppleWebKit/537.36 (KHTML, like Gecko) Chrome/98.0.4758.102 Safari/537.36" etag="0giuFABiodRzSWoASOCl" version="16.6.2" type="github">
  <diagram id="wD0F_TNsXqtQQhN_WkA5" name="Page-1">
    <mxGraphModel dx="755" dy="431" grid="1" gridSize="10" guides="1" tooltips="1" connect="1" arrows="1" fold="1" page="1" pageScale="1" pageWidth="1169" pageHeight="827" math="0" shadow="0">
      <root>
        <mxCell id="0" />
        <mxCell id="1" parent="0" />
        <mxCell id="tzvsPAz1gJnlWbKZIRWA-23" value="" style="ellipse;html=1;shape=endState;fillColor=#000000;strokeColor=#000000;" vertex="1" parent="1">
          <mxGeometry x="490" y="770" width="30" height="30" as="geometry" />
        </mxCell>
        <mxCell id="tzvsPAz1gJnlWbKZIRWA-24" style="edgeStyle=orthogonalEdgeStyle;rounded=0;orthogonalLoop=1;jettySize=auto;html=1;exitX=0.5;exitY=1;exitDx=0;exitDy=0;entryX=0.5;entryY=0;entryDx=0;entryDy=0;strokeColor=#000000;" edge="1" parent="1" source="tzvsPAz1gJnlWbKZIRWA-25" target="tzvsPAz1gJnlWbKZIRWA-28">
          <mxGeometry relative="1" as="geometry" />
        </mxCell>
        <mxCell id="tzvsPAz1gJnlWbKZIRWA-25" value="" style="ellipse;html=1;shape=startState;fillColor=#000000;strokeColor=#000000;" vertex="1" parent="1">
          <mxGeometry x="170" y="130" width="30" height="30" as="geometry" />
        </mxCell>
        <mxCell id="tzvsPAz1gJnlWbKZIRWA-55" style="edgeStyle=orthogonalEdgeStyle;rounded=0;orthogonalLoop=1;jettySize=auto;html=1;exitX=1;exitY=0.5;exitDx=0;exitDy=0;entryX=0.504;entryY=0.574;entryDx=0;entryDy=0;entryPerimeter=0;" edge="1" parent="1" source="tzvsPAz1gJnlWbKZIRWA-28" target="tzvsPAz1gJnlWbKZIRWA-54">
          <mxGeometry relative="1" as="geometry">
            <mxPoint x="458" y="320" as="targetPoint" />
            <Array as="points">
              <mxPoint x="290" y="290" />
              <mxPoint x="290" y="220" />
              <mxPoint x="458" y="220" />
            </Array>
          </mxGeometry>
        </mxCell>
        <mxCell id="tzvsPAz1gJnlWbKZIRWA-57" value="Apartamento é recebido" style="edgeLabel;html=1;align=center;verticalAlign=middle;resizable=0;points=[];" vertex="1" connectable="0" parent="tzvsPAz1gJnlWbKZIRWA-55">
          <mxGeometry x="0.0252" y="1" relative="1" as="geometry">
            <mxPoint x="9" as="offset" />
          </mxGeometry>
        </mxCell>
        <mxCell id="tzvsPAz1gJnlWbKZIRWA-28" value="&lt;p style=&quot;margin: 0px ; margin-top: 4px ; text-align: center&quot;&gt;&lt;b&gt;Apartamento&lt;/b&gt;&lt;/p&gt;&lt;hr size=&quot;1&quot;&gt;&lt;div style=&quot;height: 2px&quot;&gt;&lt;/div&gt;&lt;hr size=&quot;1&quot;&gt;&lt;div style=&quot;height: 2px&quot;&gt;&lt;/div&gt;" style="verticalAlign=top;align=left;overflow=fill;fontSize=12;fontFamily=Helvetica;html=1;strokeColor=#000000;" vertex="1" parent="1">
          <mxGeometry x="115" y="260" width="140" height="60" as="geometry" />
        </mxCell>
        <mxCell id="tzvsPAz1gJnlWbKZIRWA-31" style="edgeStyle=orthogonalEdgeStyle;rounded=0;orthogonalLoop=1;jettySize=auto;html=1;exitX=0.25;exitY=0.5;exitDx=0;exitDy=0;exitPerimeter=0;entryX=0.5;entryY=0;entryDx=0;entryDy=0;strokeColor=#000000;" edge="1" parent="1" source="tzvsPAz1gJnlWbKZIRWA-37" target="tzvsPAz1gJnlWbKZIRWA-23">
          <mxGeometry relative="1" as="geometry">
            <Array as="points">
              <mxPoint x="569" y="410" />
              <mxPoint x="505" y="410" />
            </Array>
          </mxGeometry>
        </mxCell>
        <mxCell id="tzvsPAz1gJnlWbKZIRWA-32" value="Mensagem&lt;br&gt;não é respondida" style="edgeLabel;html=1;align=center;verticalAlign=middle;resizable=0;points=[];" vertex="1" connectable="0" parent="tzvsPAz1gJnlWbKZIRWA-31">
          <mxGeometry x="-0.353" y="3" relative="1" as="geometry">
            <mxPoint as="offset" />
          </mxGeometry>
        </mxCell>
        <mxCell id="tzvsPAz1gJnlWbKZIRWA-33" style="edgeStyle=orthogonalEdgeStyle;rounded=0;orthogonalLoop=1;jettySize=auto;html=1;exitX=0.75;exitY=0.5;exitDx=0;exitDy=0;exitPerimeter=0;strokeColor=#000000;" edge="1" parent="1" source="tzvsPAz1gJnlWbKZIRWA-37" target="tzvsPAz1gJnlWbKZIRWA-39">
          <mxGeometry relative="1" as="geometry">
            <Array as="points">
              <mxPoint x="630" y="365" />
            </Array>
          </mxGeometry>
        </mxCell>
        <mxCell id="tzvsPAz1gJnlWbKZIRWA-34" value="Mensagem é respondida" style="edgeLabel;html=1;align=center;verticalAlign=middle;resizable=0;points=[];" vertex="1" connectable="0" parent="tzvsPAz1gJnlWbKZIRWA-33">
          <mxGeometry x="0.2911" y="3" relative="1" as="geometry">
            <mxPoint y="14" as="offset" />
          </mxGeometry>
        </mxCell>
        <mxCell id="tzvsPAz1gJnlWbKZIRWA-35" style="edgeStyle=orthogonalEdgeStyle;rounded=0;orthogonalLoop=1;jettySize=auto;html=1;exitX=1;exitY=0.5;exitDx=0;exitDy=0;exitPerimeter=0;strokeColor=#000000;" edge="1" parent="1" source="tzvsPAz1gJnlWbKZIRWA-37" target="tzvsPAz1gJnlWbKZIRWA-52">
          <mxGeometry relative="1" as="geometry">
            <Array as="points">
              <mxPoint x="650" y="365" />
              <mxPoint x="650" y="390" />
              <mxPoint x="840" y="390" />
            </Array>
          </mxGeometry>
        </mxCell>
        <mxCell id="tzvsPAz1gJnlWbKZIRWA-36" value="Mensagem é removida&lt;br&gt;sem ser respondida" style="edgeLabel;html=1;align=center;verticalAlign=middle;resizable=0;points=[];" vertex="1" connectable="0" parent="tzvsPAz1gJnlWbKZIRWA-35">
          <mxGeometry x="0.0834" y="4" relative="1" as="geometry">
            <mxPoint as="offset" />
          </mxGeometry>
        </mxCell>
        <mxCell id="tzvsPAz1gJnlWbKZIRWA-37" value="" style="shape=line;html=1;strokeWidth=6;strokeColor=#000000;" vertex="1" parent="1">
          <mxGeometry x="537.5" y="360" width="125" height="10" as="geometry" />
        </mxCell>
        <mxCell id="tzvsPAz1gJnlWbKZIRWA-38" style="edgeStyle=orthogonalEdgeStyle;rounded=0;orthogonalLoop=1;jettySize=auto;html=1;exitX=0.5;exitY=1;exitDx=0;exitDy=0;entryX=0.496;entryY=0.4;entryDx=0;entryDy=0;entryPerimeter=0;strokeColor=#000000;" edge="1" parent="1" source="tzvsPAz1gJnlWbKZIRWA-39" target="tzvsPAz1gJnlWbKZIRWA-44">
          <mxGeometry relative="1" as="geometry" />
        </mxCell>
        <mxCell id="tzvsPAz1gJnlWbKZIRWA-39" value="&lt;p style=&quot;margin: 0px ; margin-top: 4px ; text-align: center&quot;&gt;&lt;b&gt;Mensagem respondida&lt;/b&gt;&lt;/p&gt;&lt;hr size=&quot;1&quot;&gt;&lt;div style=&quot;height: 2px&quot;&gt;&lt;/div&gt;&lt;hr size=&quot;1&quot;&gt;&lt;div style=&quot;height: 2px&quot;&gt;&lt;/div&gt;" style="verticalAlign=top;align=left;overflow=fill;fontSize=12;fontFamily=Helvetica;html=1;strokeColor=#000000;" vertex="1" parent="1">
          <mxGeometry x="560" y="480" width="140" height="60" as="geometry" />
        </mxCell>
        <mxCell id="tzvsPAz1gJnlWbKZIRWA-40" style="edgeStyle=orthogonalEdgeStyle;rounded=0;orthogonalLoop=1;jettySize=auto;html=1;exitX=0.683;exitY=0.4;exitDx=0;exitDy=0;exitPerimeter=0;entryX=0.5;entryY=0;entryDx=0;entryDy=0;strokeColor=#000000;" edge="1" parent="1" source="tzvsPAz1gJnlWbKZIRWA-44" target="tzvsPAz1gJnlWbKZIRWA-46">
          <mxGeometry relative="1" as="geometry">
            <Array as="points">
              <mxPoint x="651" y="575" />
              <mxPoint x="650" y="575" />
              <mxPoint x="650" y="610" />
              <mxPoint x="880" y="610" />
            </Array>
          </mxGeometry>
        </mxCell>
        <mxCell id="tzvsPAz1gJnlWbKZIRWA-41" value="Mensagem é removida para a lixeira&lt;br&gt;após ser respondida" style="edgeLabel;html=1;align=center;verticalAlign=middle;resizable=0;points=[];" vertex="1" connectable="0" parent="tzvsPAz1gJnlWbKZIRWA-40">
          <mxGeometry x="-0.2589" y="3" relative="1" as="geometry">
            <mxPoint x="43" y="3" as="offset" />
          </mxGeometry>
        </mxCell>
        <mxCell id="tzvsPAz1gJnlWbKZIRWA-42" style="edgeStyle=orthogonalEdgeStyle;rounded=0;orthogonalLoop=1;jettySize=auto;html=1;exitX=0.25;exitY=0.5;exitDx=0;exitDy=0;exitPerimeter=0;entryX=1;entryY=0.5;entryDx=0;entryDy=0;strokeColor=#000000;" edge="1" parent="1" source="tzvsPAz1gJnlWbKZIRWA-44" target="tzvsPAz1gJnlWbKZIRWA-23">
          <mxGeometry relative="1" as="geometry">
            <Array as="points">
              <mxPoint x="621" y="785" />
            </Array>
          </mxGeometry>
        </mxCell>
        <mxCell id="tzvsPAz1gJnlWbKZIRWA-43" value="Nada mais é feito" style="edgeLabel;html=1;align=center;verticalAlign=middle;resizable=0;points=[];" vertex="1" connectable="0" parent="tzvsPAz1gJnlWbKZIRWA-42">
          <mxGeometry x="0.2355" y="1" relative="1" as="geometry">
            <mxPoint as="offset" />
          </mxGeometry>
        </mxCell>
        <mxCell id="tzvsPAz1gJnlWbKZIRWA-44" value="" style="shape=line;html=1;strokeWidth=6;strokeColor=#000000;" vertex="1" parent="1">
          <mxGeometry x="572.5" y="570" width="115" height="10" as="geometry" />
        </mxCell>
        <mxCell id="tzvsPAz1gJnlWbKZIRWA-45" style="edgeStyle=orthogonalEdgeStyle;rounded=0;orthogonalLoop=1;jettySize=auto;html=1;exitX=0.5;exitY=1;exitDx=0;exitDy=0;entryX=0.489;entryY=0.617;entryDx=0;entryDy=0;entryPerimeter=0;strokeColor=#000000;" edge="1" parent="1" source="tzvsPAz1gJnlWbKZIRWA-46" target="tzvsPAz1gJnlWbKZIRWA-51">
          <mxGeometry relative="1" as="geometry" />
        </mxCell>
        <mxCell id="tzvsPAz1gJnlWbKZIRWA-46" value="&lt;p style=&quot;margin: 0px ; margin-top: 4px ; text-align: center&quot;&gt;&lt;b&gt;Mensagem removida&lt;/b&gt;&lt;/p&gt;&lt;hr size=&quot;1&quot;&gt;&lt;div style=&quot;height: 2px&quot;&gt;&lt;/div&gt;&lt;hr size=&quot;1&quot;&gt;&lt;div style=&quot;height: 2px&quot;&gt;&lt;/div&gt;" style="verticalAlign=top;align=left;overflow=fill;fontSize=12;fontFamily=Helvetica;html=1;strokeColor=#000000;" vertex="1" parent="1">
          <mxGeometry x="810" y="650" width="140" height="60" as="geometry" />
        </mxCell>
        <mxCell id="tzvsPAz1gJnlWbKZIRWA-47" style="edgeStyle=orthogonalEdgeStyle;rounded=0;orthogonalLoop=1;jettySize=auto;html=1;exitX=0.25;exitY=0.5;exitDx=0;exitDy=0;exitPerimeter=0;entryX=0.5;entryY=1;entryDx=0;entryDy=0;strokeColor=#000000;" edge="1" parent="1" source="tzvsPAz1gJnlWbKZIRWA-51" target="tzvsPAz1gJnlWbKZIRWA-23">
          <mxGeometry relative="1" as="geometry">
            <Array as="points">
              <mxPoint x="850" y="820" />
              <mxPoint x="505" y="820" />
            </Array>
          </mxGeometry>
        </mxCell>
        <mxCell id="tzvsPAz1gJnlWbKZIRWA-48" value="Nada mais é feito" style="edgeLabel;html=1;align=center;verticalAlign=middle;resizable=0;points=[];" vertex="1" connectable="0" parent="tzvsPAz1gJnlWbKZIRWA-47">
          <mxGeometry x="-0.3348" y="-3" relative="1" as="geometry">
            <mxPoint as="offset" />
          </mxGeometry>
        </mxCell>
        <mxCell id="tzvsPAz1gJnlWbKZIRWA-51" value="" style="shape=line;html=1;strokeWidth=6;strokeColor=#000000;" vertex="1" parent="1">
          <mxGeometry x="820" y="730" width="120" height="10" as="geometry" />
        </mxCell>
        <mxCell id="tzvsPAz1gJnlWbKZIRWA-52" value="&lt;p style=&quot;margin: 0px ; margin-top: 4px ; text-align: center&quot;&gt;&lt;b&gt;Mensagem é removida&lt;/b&gt;&lt;/p&gt;&lt;hr size=&quot;1&quot;&gt;&lt;div style=&quot;height: 2px&quot;&gt;&lt;/div&gt;&lt;hr size=&quot;1&quot;&gt;&lt;div style=&quot;height: 2px&quot;&gt;&lt;/div&gt;" style="verticalAlign=top;align=left;overflow=fill;fontSize=12;fontFamily=Helvetica;html=1;strokeColor=#000000;" vertex="1" parent="1">
          <mxGeometry x="800" y="440" width="140" height="60" as="geometry" />
        </mxCell>
        <mxCell id="tzvsPAz1gJnlWbKZIRWA-54" value="" style="shape=line;html=1;strokeWidth=6;strokeColor=#000000;" vertex="1" parent="1">
          <mxGeometry x="395" y="285" width="125" height="10" as="geometry" />
        </mxCell>
        <mxCell id="tzvsPAz1gJnlWbKZIRWA-56" value="&lt;p style=&quot;margin: 0px ; margin-top: 4px ; text-align: center&quot;&gt;&lt;b&gt;Mensagem respondida&lt;/b&gt;&lt;/p&gt;&lt;hr size=&quot;1&quot;&gt;&lt;div style=&quot;height: 2px&quot;&gt;&lt;/div&gt;&lt;hr size=&quot;1&quot;&gt;&lt;div style=&quot;height: 2px&quot;&gt;&lt;/div&gt;" style="verticalAlign=top;align=left;overflow=fill;fontSize=12;fontFamily=Helvetica;html=1;strokeColor=#000000;" vertex="1" parent="1">
          <mxGeometry x="240" y="384" width="140" height="60" as="geometry" />
        </mxCell>
      </root>
    </mxGraphModel>
  </diagram>
</mxfile>
